<mxfile host="app.diagrams.net" agent="Mozilla/5.0 (Windows NT 10.0; Win64; x64; rv:138.0) Gecko/20100101 Firefox/138.0" version="27.0.6">
  <diagram name="PÃ¡gina-1" id="EppW8XHrt7SbsDz2OEsC">
    <mxGraphModel dx="1869" dy="542" grid="1" gridSize="10" guides="1" tooltips="1" connect="1" arrows="1" fold="1" page="1" pageScale="1" pageWidth="827" pageHeight="1169" math="0" shadow="0">
      <root>
        <mxCell id="0" />
        <mxCell id="1" parent="0" />
        <mxCell id="j0DTCVJ6tR6XMJ9f3sx3-28" style="edgeStyle=orthogonalEdgeStyle;rounded=0;orthogonalLoop=1;jettySize=auto;html=1;exitX=1;exitY=0.5;exitDx=0;exitDy=0;entryX=0;entryY=0.5;entryDx=0;entryDy=0;endArrow=none;startFill=0;" parent="1" source="j0DTCVJ6tR6XMJ9f3sx3-29" target="j0DTCVJ6tR6XMJ9f3sx3-31" edge="1">
          <mxGeometry relative="1" as="geometry" />
        </mxCell>
        <mxCell id="j0DTCVJ6tR6XMJ9f3sx3-29" value="&lt;div&gt;Jogador&lt;/div&gt;" style="rounded=0;whiteSpace=wrap;html=1;" parent="1" vertex="1">
          <mxGeometry x="-49.59" y="730" width="120" height="60" as="geometry" />
        </mxCell>
        <mxCell id="j0DTCVJ6tR6XMJ9f3sx3-30" style="edgeStyle=orthogonalEdgeStyle;rounded=0;orthogonalLoop=1;jettySize=auto;html=1;exitX=1;exitY=0.5;exitDx=0;exitDy=0;entryX=0;entryY=0.5;entryDx=0;entryDy=0;endArrow=none;startFill=0;" parent="1" source="j0DTCVJ6tR6XMJ9f3sx3-31" target="j0DTCVJ6tR6XMJ9f3sx3-33" edge="1">
          <mxGeometry relative="1" as="geometry" />
        </mxCell>
        <mxCell id="j0DTCVJ6tR6XMJ9f3sx3-31" value="&lt;div&gt;Pertence&lt;/div&gt;" style="rhombus;whiteSpace=wrap;html=1;" parent="1" vertex="1">
          <mxGeometry x="90.41" y="730" width="120" height="60" as="geometry" />
        </mxCell>
        <mxCell id="j0DTCVJ6tR6XMJ9f3sx3-32" style="edgeStyle=orthogonalEdgeStyle;rounded=0;orthogonalLoop=1;jettySize=auto;html=1;exitX=1;exitY=0.5;exitDx=0;exitDy=0;entryX=0;entryY=0.5;entryDx=0;entryDy=0;endArrow=none;startFill=0;" parent="1" source="j0DTCVJ6tR6XMJ9f3sx3-33" target="j0DTCVJ6tR6XMJ9f3sx3-35" edge="1">
          <mxGeometry relative="1" as="geometry" />
        </mxCell>
        <mxCell id="j0DTCVJ6tR6XMJ9f3sx3-33" value="Equipe" style="rounded=0;whiteSpace=wrap;html=1;" parent="1" vertex="1">
          <mxGeometry x="234.41" y="730" width="120" height="60" as="geometry" />
        </mxCell>
        <mxCell id="j0DTCVJ6tR6XMJ9f3sx3-34" style="edgeStyle=orthogonalEdgeStyle;rounded=0;orthogonalLoop=1;jettySize=auto;html=1;exitX=1;exitY=0.5;exitDx=0;exitDy=0;entryX=0;entryY=0.5;entryDx=0;entryDy=0;endArrow=none;startFill=0;shape=link;" parent="1" source="j0DTCVJ6tR6XMJ9f3sx3-35" target="j0DTCVJ6tR6XMJ9f3sx3-36" edge="1">
          <mxGeometry relative="1" as="geometry" />
        </mxCell>
        <mxCell id="j0DTCVJ6tR6XMJ9f3sx3-35" value="Participa" style="rhombus;whiteSpace=wrap;html=1;" parent="1" vertex="1">
          <mxGeometry x="380.41" y="730" width="120" height="60" as="geometry" />
        </mxCell>
        <mxCell id="j0DTCVJ6tR6XMJ9f3sx3-36" value="Jogo" style="rounded=0;whiteSpace=wrap;html=1;" parent="1" vertex="1">
          <mxGeometry x="520.41" y="730" width="120" height="60" as="geometry" />
        </mxCell>
        <mxCell id="j0DTCVJ6tR6XMJ9f3sx3-37" style="edgeStyle=orthogonalEdgeStyle;rounded=0;orthogonalLoop=1;jettySize=auto;html=1;exitX=0.5;exitY=0;exitDx=0;exitDy=0;entryX=0.5;entryY=1;entryDx=0;entryDy=0;endArrow=none;startFill=0;" parent="1" source="j0DTCVJ6tR6XMJ9f3sx3-39" target="j0DTCVJ6tR6XMJ9f3sx3-36" edge="1">
          <mxGeometry relative="1" as="geometry" />
        </mxCell>
        <mxCell id="j0DTCVJ6tR6XMJ9f3sx3-99" style="edgeStyle=orthogonalEdgeStyle;rounded=0;orthogonalLoop=1;jettySize=auto;html=1;exitX=0;exitY=0.5;exitDx=0;exitDy=0;entryX=1;entryY=0.5;entryDx=0;entryDy=0;endArrow=none;startFill=0;shape=link;" parent="1" source="j0DTCVJ6tR6XMJ9f3sx3-39" target="j0DTCVJ6tR6XMJ9f3sx3-40" edge="1">
          <mxGeometry relative="1" as="geometry" />
        </mxCell>
        <mxCell id="j0DTCVJ6tR6XMJ9f3sx3-39" value="Registra" style="rhombus;whiteSpace=wrap;html=1;" parent="1" vertex="1">
          <mxGeometry x="520.41" y="890" width="120" height="60" as="geometry" />
        </mxCell>
        <mxCell id="j0DTCVJ6tR6XMJ9f3sx3-40" value="Estatistica" style="rounded=0;whiteSpace=wrap;html=1;" parent="1" vertex="1">
          <mxGeometry x="234.41" y="890" width="120" height="60" as="geometry" />
        </mxCell>
        <mxCell id="j0DTCVJ6tR6XMJ9f3sx3-41" style="edgeStyle=orthogonalEdgeStyle;rounded=0;orthogonalLoop=1;jettySize=auto;html=1;exitX=0.5;exitY=0;exitDx=0;exitDy=0;entryX=0.5;entryY=1;entryDx=0;entryDy=0;endArrow=none;startFill=0;" parent="1" source="j0DTCVJ6tR6XMJ9f3sx3-43" target="j0DTCVJ6tR6XMJ9f3sx3-29" edge="1">
          <mxGeometry relative="1" as="geometry" />
        </mxCell>
        <mxCell id="j0DTCVJ6tR6XMJ9f3sx3-42" style="edgeStyle=orthogonalEdgeStyle;rounded=0;orthogonalLoop=1;jettySize=auto;html=1;exitX=1;exitY=0.5;exitDx=0;exitDy=0;entryX=0;entryY=0.5;entryDx=0;entryDy=0;endArrow=none;startFill=0;shape=link;" parent="1" source="j0DTCVJ6tR6XMJ9f3sx3-43" target="j0DTCVJ6tR6XMJ9f3sx3-40" edge="1">
          <mxGeometry relative="1" as="geometry" />
        </mxCell>
        <mxCell id="j0DTCVJ6tR6XMJ9f3sx3-43" value="Tem" style="rhombus;whiteSpace=wrap;html=1;" parent="1" vertex="1">
          <mxGeometry x="-49.59" y="890" width="120" height="60" as="geometry" />
        </mxCell>
        <mxCell id="j0DTCVJ6tR6XMJ9f3sx3-46" style="edgeStyle=orthogonalEdgeStyle;rounded=0;orthogonalLoop=1;jettySize=auto;html=1;exitX=1;exitY=0.5;exitDx=0;exitDy=0;endArrow=none;startFill=0;" parent="1" source="j0DTCVJ6tR6XMJ9f3sx3-47" edge="1">
          <mxGeometry relative="1" as="geometry">
            <mxPoint x="731.41" y="735" as="targetPoint" />
          </mxGeometry>
        </mxCell>
        <mxCell id="j0DTCVJ6tR6XMJ9f3sx3-47" value="hora" style="ellipse;whiteSpace=wrap;html=1;" parent="1" vertex="1">
          <mxGeometry x="649.91" y="720" width="70" height="30" as="geometry" />
        </mxCell>
        <mxCell id="j0DTCVJ6tR6XMJ9f3sx3-115" style="edgeStyle=orthogonalEdgeStyle;rounded=0;orthogonalLoop=1;jettySize=auto;html=1;exitX=0;exitY=0.5;exitDx=0;exitDy=0;entryX=1;entryY=0.5;entryDx=0;entryDy=0;endArrow=none;startFill=0;" parent="1" source="j0DTCVJ6tR6XMJ9f3sx3-51" target="j0DTCVJ6tR6XMJ9f3sx3-36" edge="1">
          <mxGeometry relative="1" as="geometry">
            <Array as="points">
              <mxPoint x="730" y="735" />
              <mxPoint x="730" y="760" />
            </Array>
          </mxGeometry>
        </mxCell>
        <mxCell id="j0DTCVJ6tR6XMJ9f3sx3-51" value="local" style="ellipse;whiteSpace=wrap;html=1;" parent="1" vertex="1">
          <mxGeometry x="740.91" y="720" width="70" height="30" as="geometry" />
        </mxCell>
        <mxCell id="j0DTCVJ6tR6XMJ9f3sx3-52" style="edgeStyle=orthogonalEdgeStyle;rounded=0;orthogonalLoop=1;jettySize=auto;html=1;exitX=0;exitY=0.5;exitDx=0;exitDy=0;endArrow=none;startFill=0;entryX=0.5;entryY=1;entryDx=0;entryDy=0;" parent="1" source="j0DTCVJ6tR6XMJ9f3sx3-53" target="j0DTCVJ6tR6XMJ9f3sx3-33" edge="1">
          <mxGeometry relative="1" as="geometry">
            <mxPoint x="292.91" y="825" as="targetPoint" />
          </mxGeometry>
        </mxCell>
        <mxCell id="j0DTCVJ6tR6XMJ9f3sx3-53" value="&lt;u&gt;nome&lt;/u&gt;" style="ellipse;whiteSpace=wrap;html=1;" parent="1" vertex="1">
          <mxGeometry x="302.91" y="810" width="70" height="30" as="geometry" />
        </mxCell>
        <mxCell id="j0DTCVJ6tR6XMJ9f3sx3-56" style="edgeStyle=orthogonalEdgeStyle;rounded=0;orthogonalLoop=1;jettySize=auto;html=1;endArrow=none;startFill=0;" parent="1" edge="1">
          <mxGeometry relative="1" as="geometry">
            <mxPoint x="295.41" y="825" as="targetPoint" />
            <mxPoint x="295.91" y="825" as="sourcePoint" />
          </mxGeometry>
        </mxCell>
        <mxCell id="j0DTCVJ6tR6XMJ9f3sx3-57" style="edgeStyle=orthogonalEdgeStyle;rounded=0;orthogonalLoop=1;jettySize=auto;html=1;exitX=1;exitY=0.5;exitDx=0;exitDy=0;endArrow=none;startFill=0;" parent="1" source="j0DTCVJ6tR6XMJ9f3sx3-58" edge="1">
          <mxGeometry relative="1" as="geometry">
            <mxPoint x="-138.59" y="695" as="targetPoint" />
          </mxGeometry>
        </mxCell>
        <mxCell id="j0DTCVJ6tR6XMJ9f3sx3-58" value="&lt;u&gt;id&lt;/u&gt;" style="ellipse;whiteSpace=wrap;html=1;" parent="1" vertex="1">
          <mxGeometry x="-220.09" y="680" width="70" height="30" as="geometry" />
        </mxCell>
        <mxCell id="0IrGJ5FR2d2y25oEQgXP-39" style="edgeStyle=orthogonalEdgeStyle;rounded=0;orthogonalLoop=1;jettySize=auto;html=1;exitX=0;exitY=0.5;exitDx=0;exitDy=0;entryX=0;entryY=0.5;entryDx=0;entryDy=0;endArrow=none;startFill=0;" parent="1" source="j0DTCVJ6tR6XMJ9f3sx3-62" target="j0DTCVJ6tR6XMJ9f3sx3-29" edge="1">
          <mxGeometry relative="1" as="geometry">
            <Array as="points">
              <mxPoint x="-140" y="695" />
              <mxPoint x="-140" y="760" />
            </Array>
          </mxGeometry>
        </mxCell>
        <mxCell id="j0DTCVJ6tR6XMJ9f3sx3-62" value="nome" style="ellipse;whiteSpace=wrap;html=1;" parent="1" vertex="1">
          <mxGeometry x="-129.09" y="680" width="70" height="30" as="geometry" />
        </mxCell>
        <mxCell id="j0DTCVJ6tR6XMJ9f3sx3-65" style="edgeStyle=orthogonalEdgeStyle;rounded=0;orthogonalLoop=1;jettySize=auto;html=1;exitX=0;exitY=0.5;exitDx=0;exitDy=0;endArrow=none;startFill=0;" parent="1" source="j0DTCVJ6tR6XMJ9f3sx3-66" edge="1">
          <mxGeometry relative="1" as="geometry">
            <mxPoint x="-138.59" y="735" as="targetPoint" />
          </mxGeometry>
        </mxCell>
        <mxCell id="j0DTCVJ6tR6XMJ9f3sx3-66" value="numero" style="ellipse;whiteSpace=wrap;html=1;" parent="1" vertex="1">
          <mxGeometry x="-129.09" y="720" width="70" height="30" as="geometry" />
        </mxCell>
        <mxCell id="j0DTCVJ6tR6XMJ9f3sx3-69" style="edgeStyle=orthogonalEdgeStyle;rounded=0;orthogonalLoop=1;jettySize=auto;html=1;exitX=1;exitY=0.5;exitDx=0;exitDy=0;endArrow=none;startFill=0;" parent="1" source="j0DTCVJ6tR6XMJ9f3sx3-70" edge="1">
          <mxGeometry relative="1" as="geometry">
            <mxPoint x="295.41" y="985" as="targetPoint" />
          </mxGeometry>
        </mxCell>
        <mxCell id="j0DTCVJ6tR6XMJ9f3sx3-70" value="&lt;div&gt;&lt;u&gt;id&lt;/u&gt;&lt;/div&gt;" style="ellipse;whiteSpace=wrap;html=1;" parent="1" vertex="1">
          <mxGeometry x="213.91" y="970" width="70" height="30" as="geometry" />
        </mxCell>
        <mxCell id="j0DTCVJ6tR6XMJ9f3sx3-71" style="edgeStyle=orthogonalEdgeStyle;rounded=0;orthogonalLoop=1;jettySize=auto;html=1;exitX=0;exitY=0.5;exitDx=0;exitDy=0;endArrow=none;startFill=0;entryX=0.5;entryY=1;entryDx=0;entryDy=0;" parent="1" source="j0DTCVJ6tR6XMJ9f3sx3-72" target="j0DTCVJ6tR6XMJ9f3sx3-40" edge="1">
          <mxGeometry relative="1" as="geometry">
            <mxPoint x="295.41" y="1025" as="targetPoint" />
            <Array as="points">
              <mxPoint x="294" y="1025" />
            </Array>
          </mxGeometry>
        </mxCell>
        <mxCell id="j0DTCVJ6tR6XMJ9f3sx3-72" value="cartoes" style="ellipse;whiteSpace=wrap;html=1;" parent="1" vertex="1">
          <mxGeometry x="304.91" y="1010" width="70" height="30" as="geometry" />
        </mxCell>
        <mxCell id="j0DTCVJ6tR6XMJ9f3sx3-73" style="edgeStyle=orthogonalEdgeStyle;rounded=0;orthogonalLoop=1;jettySize=auto;html=1;exitX=0;exitY=0.5;exitDx=0;exitDy=0;endArrow=none;startFill=0;" parent="1" source="j0DTCVJ6tR6XMJ9f3sx3-74" edge="1">
          <mxGeometry relative="1" as="geometry">
            <mxPoint x="295.41" y="985" as="targetPoint" />
          </mxGeometry>
        </mxCell>
        <mxCell id="j0DTCVJ6tR6XMJ9f3sx3-74" value="gols" style="ellipse;whiteSpace=wrap;html=1;" parent="1" vertex="1">
          <mxGeometry x="304.91" y="970" width="70" height="30" as="geometry" />
        </mxCell>
        <mxCell id="j0DTCVJ6tR6XMJ9f3sx3-77" value="Pessoa" style="rounded=0;whiteSpace=wrap;html=1;" parent="1" vertex="1">
          <mxGeometry x="221.5" y="360" width="120" height="60" as="geometry" />
        </mxCell>
        <mxCell id="j0DTCVJ6tR6XMJ9f3sx3-78" style="edgeStyle=orthogonalEdgeStyle;rounded=0;orthogonalLoop=1;jettySize=auto;html=1;exitX=1;exitY=0.5;exitDx=0;exitDy=0;entryX=0;entryY=0.75;entryDx=0;entryDy=0;endArrow=none;startFill=0;" parent="1" source="j0DTCVJ6tR6XMJ9f3sx3-79" edge="1">
          <mxGeometry relative="1" as="geometry">
            <mxPoint x="221.49999999999986" y="385" as="targetPoint" />
          </mxGeometry>
        </mxCell>
        <mxCell id="j0DTCVJ6tR6XMJ9f3sx3-79" value="&lt;u&gt;login&lt;/u&gt;" style="ellipse;whiteSpace=wrap;html=1;" parent="1" vertex="1">
          <mxGeometry x="140" y="375" width="70" height="30" as="geometry" />
        </mxCell>
        <mxCell id="j0DTCVJ6tR6XMJ9f3sx3-82" style="edgeStyle=orthogonalEdgeStyle;rounded=0;orthogonalLoop=1;jettySize=auto;html=1;exitX=0;exitY=0.5;exitDx=0;exitDy=0;endArrow=none;startFill=0;" parent="1" source="j0DTCVJ6tR6XMJ9f3sx3-83" edge="1">
          <mxGeometry relative="1" as="geometry">
            <mxPoint x="341.5" y="372.5" as="targetPoint" />
          </mxGeometry>
        </mxCell>
        <mxCell id="j0DTCVJ6tR6XMJ9f3sx3-83" value="senha" style="ellipse;whiteSpace=wrap;html=1;" parent="1" vertex="1">
          <mxGeometry x="354.59" y="375" width="70" height="30" as="geometry" />
        </mxCell>
        <mxCell id="j0DTCVJ6tR6XMJ9f3sx3-84" style="edgeStyle=orthogonalEdgeStyle;rounded=0;orthogonalLoop=1;jettySize=auto;html=1;exitX=0.5;exitY=0;exitDx=0;exitDy=0;entryX=0.5;entryY=1;entryDx=0;entryDy=0;endArrow=none;startFill=0;" parent="1" source="j0DTCVJ6tR6XMJ9f3sx3-87" target="j0DTCVJ6tR6XMJ9f3sx3-77" edge="1">
          <mxGeometry relative="1" as="geometry" />
        </mxCell>
        <mxCell id="j0DTCVJ6tR6XMJ9f3sx3-85" style="edgeStyle=orthogonalEdgeStyle;rounded=0;orthogonalLoop=1;jettySize=auto;html=1;exitX=0;exitY=0.5;exitDx=0;exitDy=0;endArrow=none;startFill=0;entryX=0.469;entryY=0.009;entryDx=0;entryDy=0;entryPerimeter=0;curved=1;startArrow=none;" parent="1" source="j0DTCVJ6tR6XMJ9f3sx3-87" target="j0DTCVJ6tR6XMJ9f3sx3-89" edge="1">
          <mxGeometry relative="1" as="geometry">
            <mxPoint x="172.5" y="570" as="targetPoint" />
          </mxGeometry>
        </mxCell>
        <mxCell id="j0DTCVJ6tR6XMJ9f3sx3-86" style="edgeStyle=orthogonalEdgeStyle;rounded=0;orthogonalLoop=1;jettySize=auto;html=1;exitX=1;exitY=0.5;exitDx=0;exitDy=0;endArrow=none;startFill=0;entryX=0.5;entryY=0;entryDx=0;entryDy=0;curved=1;" parent="1" source="j0DTCVJ6tR6XMJ9f3sx3-87" target="j0DTCVJ6tR6XMJ9f3sx3-88" edge="1">
          <mxGeometry relative="1" as="geometry">
            <mxPoint x="382.5" y="570" as="targetPoint" />
          </mxGeometry>
        </mxCell>
        <mxCell id="j0DTCVJ6tR6XMJ9f3sx3-87" value="d" style="ellipse;whiteSpace=wrap;html=1;aspect=fixed;" parent="1" vertex="1">
          <mxGeometry x="266.5" y="440" width="30" height="30" as="geometry" />
        </mxCell>
        <mxCell id="j0DTCVJ6tR6XMJ9f3sx3-88" value="Usuario" style="rounded=0;whiteSpace=wrap;html=1;" parent="1" vertex="1">
          <mxGeometry x="296.49999999999994" y="570" width="120" height="60" as="geometry" />
        </mxCell>
        <mxCell id="j0DTCVJ6tR6XMJ9f3sx3-89" value="Administrador" style="rounded=0;whiteSpace=wrap;html=1;" parent="1" vertex="1">
          <mxGeometry x="146.5" y="570" width="120" height="60" as="geometry" />
        </mxCell>
        <mxCell id="0IrGJ5FR2d2y25oEQgXP-5" value="" style="shape=requiredInterface;html=1;verticalLabelPosition=bottom;sketch=0;rotation=75;" parent="1" vertex="1">
          <mxGeometry x="328.89" y="483" width="32.61" height="30" as="geometry" />
        </mxCell>
        <mxCell id="0IrGJ5FR2d2y25oEQgXP-8" value="" style="shape=requiredInterface;html=1;verticalLabelPosition=bottom;sketch=0;rotation=105;" parent="1" vertex="1">
          <mxGeometry x="197.5" y="483" width="32.61" height="30" as="geometry" />
        </mxCell>
        <mxCell id="0IrGJ5FR2d2y25oEQgXP-19" style="edgeStyle=orthogonalEdgeStyle;rounded=0;orthogonalLoop=1;jettySize=auto;html=1;exitX=0;exitY=0.5;exitDx=0;exitDy=0;entryX=1;entryY=0.5;entryDx=0;entryDy=0;endArrow=none;startFill=0;" parent="1" source="0IrGJ5FR2d2y25oEQgXP-15" target="j0DTCVJ6tR6XMJ9f3sx3-36" edge="1">
          <mxGeometry relative="1" as="geometry">
            <Array as="points">
              <mxPoint x="730" y="695" />
              <mxPoint x="730" y="760" />
            </Array>
          </mxGeometry>
        </mxCell>
        <mxCell id="0IrGJ5FR2d2y25oEQgXP-15" value="data" style="ellipse;whiteSpace=wrap;html=1;" parent="1" vertex="1">
          <mxGeometry x="740.91" y="680" width="70" height="30" as="geometry" />
        </mxCell>
        <mxCell id="0IrGJ5FR2d2y25oEQgXP-20" style="edgeStyle=orthogonalEdgeStyle;rounded=0;orthogonalLoop=1;jettySize=auto;html=1;exitX=1;exitY=0.5;exitDx=0;exitDy=0;endArrow=none;startFill=0;" parent="1" source="0IrGJ5FR2d2y25oEQgXP-16" edge="1">
          <mxGeometry relative="1" as="geometry">
            <mxPoint x="729.91" y="695.2631578947369" as="targetPoint" />
          </mxGeometry>
        </mxCell>
        <mxCell id="0IrGJ5FR2d2y25oEQgXP-16" value="&lt;div&gt;&lt;u&gt;id&lt;/u&gt;&lt;/div&gt;" style="ellipse;whiteSpace=wrap;html=1;" parent="1" vertex="1">
          <mxGeometry x="649.91" y="680" width="70" height="30" as="geometry" />
        </mxCell>
        <mxCell id="0IrGJ5FR2d2y25oEQgXP-30" value="1" style="text;html=1;align=center;verticalAlign=middle;resizable=0;points=[];autosize=1;strokeColor=none;fillColor=none;" parent="1" vertex="1">
          <mxGeometry x="10" y="860" width="30" height="30" as="geometry" />
        </mxCell>
        <mxCell id="0IrGJ5FR2d2y25oEQgXP-31" value="N" style="text;html=1;align=center;verticalAlign=middle;resizable=0;points=[];autosize=1;strokeColor=none;fillColor=none;" parent="1" vertex="1">
          <mxGeometry x="60.41" y="890" width="30" height="30" as="geometry" />
        </mxCell>
        <mxCell id="0IrGJ5FR2d2y25oEQgXP-32" value="N" style="text;html=1;align=center;verticalAlign=middle;resizable=0;points=[];autosize=1;strokeColor=none;fillColor=none;" parent="1" vertex="1">
          <mxGeometry x="490.40999999999997" y="888" width="30" height="30" as="geometry" />
        </mxCell>
        <mxCell id="0IrGJ5FR2d2y25oEQgXP-33" value="1" style="text;html=1;align=center;verticalAlign=middle;resizable=0;points=[];autosize=1;strokeColor=none;fillColor=none;" parent="1" vertex="1">
          <mxGeometry x="555" y="858" width="30" height="30" as="geometry" />
        </mxCell>
        <mxCell id="0IrGJ5FR2d2y25oEQgXP-34" value="2" style="text;html=1;align=center;verticalAlign=middle;resizable=0;points=[];autosize=1;strokeColor=none;fillColor=none;" parent="1" vertex="1">
          <mxGeometry x="354.40999999999997" y="760" width="30" height="30" as="geometry" />
        </mxCell>
        <mxCell id="0IrGJ5FR2d2y25oEQgXP-35" value="N" style="text;html=1;align=center;verticalAlign=middle;resizable=0;points=[];autosize=1;strokeColor=none;fillColor=none;" parent="1" vertex="1">
          <mxGeometry x="496" y="760" width="30" height="30" as="geometry" />
        </mxCell>
        <mxCell id="0IrGJ5FR2d2y25oEQgXP-36" value="N" style="text;html=1;align=center;verticalAlign=middle;resizable=0;points=[];autosize=1;strokeColor=none;fillColor=none;" parent="1" vertex="1">
          <mxGeometry x="70.41" y="760" width="30" height="30" as="geometry" />
        </mxCell>
        <mxCell id="0IrGJ5FR2d2y25oEQgXP-37" value="1" style="text;html=1;align=center;verticalAlign=middle;resizable=0;points=[];autosize=1;strokeColor=none;fillColor=none;" parent="1" vertex="1">
          <mxGeometry x="204.41" y="760" width="30" height="30" as="geometry" />
        </mxCell>
        <mxCell id="ASrjUZwRnqdHb8apJMvi-1" value="" style="line;strokeWidth=1;fillColor=none;align=left;verticalAlign=middle;spacingTop=-1;spacingLeft=3;spacingRight=3;rotatable=1;labelPosition=right;points=[];portConstraint=eastwest;strokeColor=inherit;movable=1;resizable=1;deletable=1;editable=1;locked=0;connectable=1;" parent="1" vertex="1">
          <mxGeometry x="-770" y="470" width="263" height="8" as="geometry" />
        </mxCell>
        <mxCell id="ASrjUZwRnqdHb8apJMvi-2" value="Estatistica" style="text;html=1;align=center;verticalAlign=middle;resizable=1;points=[];autosize=1;strokeColor=none;fillColor=none;fontStyle=1;movable=1;rotatable=1;deletable=1;editable=1;locked=0;connectable=1;" parent="1" vertex="1">
          <mxGeometry x="-770" y="448" width="80" height="30" as="geometry" />
        </mxCell>
        <mxCell id="ASrjUZwRnqdHb8apJMvi-3" value="&lt;u&gt;id&lt;/u&gt;" style="text;html=1;align=center;verticalAlign=middle;resizable=1;points=[];autosize=1;strokeColor=none;fillColor=none;movable=1;rotatable=1;deletable=1;editable=1;locked=0;connectable=1;" parent="1" vertex="1">
          <mxGeometry x="-770" y="470" width="30" height="30" as="geometry" />
        </mxCell>
        <mxCell id="ASrjUZwRnqdHb8apJMvi-4" value="cartÃµes" style="text;html=1;align=center;verticalAlign=middle;resizable=1;points=[];autosize=1;strokeColor=none;fillColor=none;movable=1;rotatable=1;deletable=1;editable=1;locked=0;connectable=1;" parent="1" vertex="1">
          <mxGeometry x="-697" y="470" width="60" height="30" as="geometry" />
        </mxCell>
        <mxCell id="ASrjUZwRnqdHb8apJMvi-5" value="gols" style="text;html=1;align=center;verticalAlign=middle;resizable=1;points=[];autosize=1;strokeColor=none;fillColor=none;movable=1;rotatable=1;deletable=1;editable=1;locked=0;connectable=1;" parent="1" vertex="1">
          <mxGeometry x="-740" y="470" width="50" height="30" as="geometry" />
        </mxCell>
        <mxCell id="ASrjUZwRnqdHb8apJMvi-6" value="&lt;u&gt;jogo_id&lt;/u&gt;" style="text;html=1;align=center;verticalAlign=middle;resizable=1;points=[];autosize=1;strokeColor=none;fillColor=none;movable=1;rotatable=1;deletable=1;editable=1;locked=0;connectable=1;" parent="1" vertex="1">
          <mxGeometry x="-637" y="470" width="60" height="30" as="geometry" />
        </mxCell>
        <mxCell id="ASrjUZwRnqdHb8apJMvi-7" value="&lt;div&gt;&lt;u&gt;jogador_id&lt;/u&gt;&lt;/div&gt;" style="text;html=1;align=center;verticalAlign=middle;resizable=1;points=[];autosize=1;strokeColor=none;fillColor=none;movable=1;rotatable=1;deletable=1;editable=1;locked=0;connectable=1;" parent="1" vertex="1">
          <mxGeometry x="-577" y="470" width="80" height="30" as="geometry" />
        </mxCell>
        <mxCell id="ASrjUZwRnqdHb8apJMvi-8" value="" style="line;strokeWidth=1;fillColor=none;align=left;verticalAlign=middle;spacingTop=-1;spacingLeft=3;spacingRight=3;rotatable=1;labelPosition=right;points=[];portConstraint=eastwest;strokeColor=inherit;movable=1;resizable=1;deletable=1;editable=1;locked=0;connectable=1;" parent="1" vertex="1">
          <mxGeometry x="-770" y="372" width="380" height="8" as="geometry" />
        </mxCell>
        <mxCell id="ASrjUZwRnqdHb8apJMvi-9" value="Jogo" style="text;html=1;align=center;verticalAlign=middle;resizable=1;points=[];autosize=1;strokeColor=none;fillColor=none;fontStyle=1;movable=1;rotatable=1;deletable=1;editable=1;locked=0;connectable=1;" parent="1" vertex="1">
          <mxGeometry x="-755" y="350" width="50" height="30" as="geometry" />
        </mxCell>
        <mxCell id="ASrjUZwRnqdHb8apJMvi-10" value="&lt;u&gt;id&lt;/u&gt;" style="text;html=1;align=center;verticalAlign=middle;resizable=1;points=[];autosize=1;strokeColor=none;fillColor=none;movable=1;rotatable=1;deletable=1;editable=1;locked=0;connectable=1;" parent="1" vertex="1">
          <mxGeometry x="-770" y="372" width="30" height="30" as="geometry" />
        </mxCell>
        <mxCell id="ASrjUZwRnqdHb8apJMvi-11" value="hora" style="text;html=1;align=center;verticalAlign=middle;resizable=1;points=[];autosize=1;strokeColor=none;fillColor=none;movable=1;rotatable=1;deletable=1;editable=1;locked=0;connectable=1;" parent="1" vertex="1">
          <mxGeometry x="-692" y="372" width="50" height="30" as="geometry" />
        </mxCell>
        <mxCell id="ASrjUZwRnqdHb8apJMvi-12" value="data" style="text;html=1;align=center;verticalAlign=middle;resizable=1;points=[];autosize=1;strokeColor=none;fillColor=none;movable=1;rotatable=1;deletable=1;editable=1;locked=0;connectable=1;" parent="1" vertex="1">
          <mxGeometry x="-740" y="372" width="50" height="30" as="geometry" />
        </mxCell>
        <mxCell id="ASrjUZwRnqdHb8apJMvi-13" value="local" style="text;html=1;align=center;verticalAlign=middle;resizable=1;points=[];autosize=1;strokeColor=none;fillColor=none;movable=1;rotatable=1;deletable=1;editable=1;locked=0;connectable=1;" parent="1" vertex="1">
          <mxGeometry x="-632" y="372" width="50" height="30" as="geometry" />
        </mxCell>
        <mxCell id="ASrjUZwRnqdHb8apJMvi-14" value="&lt;div&gt;&lt;u&gt;nome_equipe1&lt;/u&gt;&lt;/div&gt;" style="text;html=1;align=center;verticalAlign=middle;resizable=1;points=[];autosize=1;strokeColor=none;fillColor=none;movable=1;rotatable=1;deletable=1;editable=1;locked=0;connectable=1;" parent="1" vertex="1">
          <mxGeometry x="-587" y="372" width="100" height="30" as="geometry" />
        </mxCell>
        <mxCell id="ASrjUZwRnqdHb8apJMvi-16" value="" style="line;strokeWidth=1;fillColor=none;align=left;verticalAlign=middle;spacingTop=-1;spacingLeft=3;spacingRight=3;rotatable=1;labelPosition=right;points=[];portConstraint=eastwest;strokeColor=inherit;movable=1;resizable=1;deletable=1;editable=1;locked=0;connectable=1;" parent="1" vertex="1">
          <mxGeometry x="-765" y="192" width="75" height="8" as="geometry" />
        </mxCell>
        <mxCell id="ASrjUZwRnqdHb8apJMvi-17" value="Equipe" style="text;html=1;align=center;verticalAlign=middle;resizable=1;points=[];autosize=1;strokeColor=none;fillColor=none;fontStyle=1;movable=1;rotatable=1;deletable=1;editable=1;locked=0;connectable=1;" parent="1" vertex="1">
          <mxGeometry x="-765" y="170" width="60" height="30" as="geometry" />
        </mxCell>
        <mxCell id="ASrjUZwRnqdHb8apJMvi-18" value="&lt;u&gt;nome&lt;/u&gt;" style="text;html=1;align=center;verticalAlign=middle;resizable=1;points=[];autosize=1;strokeColor=none;fillColor=none;movable=1;rotatable=1;deletable=1;editable=1;locked=0;connectable=1;" parent="1" vertex="1">
          <mxGeometry x="-770" y="191" width="50" height="30" as="geometry" />
        </mxCell>
        <mxCell id="ASrjUZwRnqdHb8apJMvi-19" value="" style="line;strokeWidth=1;fillColor=none;align=left;verticalAlign=middle;spacingTop=-1;spacingLeft=3;spacingRight=3;rotatable=1;labelPosition=right;points=[];portConstraint=eastwest;strokeColor=inherit;movable=1;resizable=1;deletable=1;editable=1;locked=0;connectable=1;" parent="1" vertex="1">
          <mxGeometry x="-770" y="282" width="210" height="8" as="geometry" />
        </mxCell>
        <mxCell id="ASrjUZwRnqdHb8apJMvi-20" value="Jogador" style="text;html=1;align=center;verticalAlign=middle;resizable=1;points=[];autosize=1;strokeColor=none;fillColor=none;fontStyle=1;movable=1;rotatable=1;deletable=1;editable=1;locked=0;connectable=1;" parent="1" vertex="1">
          <mxGeometry x="-765" y="260" width="70" height="30" as="geometry" />
        </mxCell>
        <mxCell id="ASrjUZwRnqdHb8apJMvi-21" value="&lt;u&gt;id&lt;/u&gt;" style="text;html=1;align=center;verticalAlign=middle;resizable=1;points=[];autosize=1;strokeColor=none;fillColor=none;movable=1;rotatable=1;deletable=1;editable=1;locked=0;connectable=1;" parent="1" vertex="1">
          <mxGeometry x="-770" y="282" width="30" height="30" as="geometry" />
        </mxCell>
        <mxCell id="ASrjUZwRnqdHb8apJMvi-22" value="numero" style="text;html=1;align=center;verticalAlign=middle;resizable=1;points=[];autosize=1;strokeColor=none;fillColor=none;movable=1;rotatable=1;deletable=1;editable=1;locked=0;connectable=1;" parent="1" vertex="1">
          <mxGeometry x="-697" y="282" width="60" height="30" as="geometry" />
        </mxCell>
        <mxCell id="ASrjUZwRnqdHb8apJMvi-23" value="nome" style="text;html=1;align=center;verticalAlign=middle;resizable=1;points=[];autosize=1;strokeColor=none;fillColor=none;movable=1;rotatable=1;deletable=1;editable=1;locked=0;connectable=1;" parent="1" vertex="1">
          <mxGeometry x="-740" y="282" width="50" height="30" as="geometry" />
        </mxCell>
        <mxCell id="ASrjUZwRnqdHb8apJMvi-24" value="&lt;u&gt;nome_equipe&lt;/u&gt;" style="text;html=1;align=center;verticalAlign=middle;resizable=1;points=[];autosize=1;strokeColor=none;fillColor=none;movable=1;rotatable=1;deletable=1;editable=1;locked=0;connectable=1;" parent="1" vertex="1">
          <mxGeometry x="-647" y="282" width="100" height="30" as="geometry" />
        </mxCell>
        <mxCell id="ASrjUZwRnqdHb8apJMvi-25" value="&lt;div&gt;&lt;u&gt;nome_equipe2&lt;/u&gt;&lt;/div&gt;" style="text;html=1;align=center;verticalAlign=middle;resizable=1;points=[];autosize=1;strokeColor=none;fillColor=none;movable=1;rotatable=1;deletable=1;editable=1;locked=0;connectable=1;" parent="1" vertex="1">
          <mxGeometry x="-487.00000000000006" y="373" width="100" height="30" as="geometry" />
        </mxCell>
        <mxCell id="ASrjUZwRnqdHb8apJMvi-26" value="" style="line;strokeWidth=1;fillColor=none;align=left;verticalAlign=middle;spacingTop=-1;spacingLeft=3;spacingRight=3;rotatable=1;labelPosition=right;points=[];portConstraint=eastwest;strokeColor=inherit;movable=1;resizable=1;deletable=1;editable=1;locked=0;connectable=1;" parent="1" vertex="1">
          <mxGeometry x="-760" y="122" width="80" height="8" as="geometry" />
        </mxCell>
        <mxCell id="ASrjUZwRnqdHb8apJMvi-27" value="Pessoa" style="text;html=1;align=center;verticalAlign=middle;resizable=1;points=[];autosize=1;strokeColor=none;fillColor=none;fontStyle=1;movable=1;rotatable=1;deletable=1;editable=1;locked=0;connectable=1;" parent="1" vertex="1">
          <mxGeometry x="-750" y="100" width="60" height="30" as="geometry" />
        </mxCell>
        <mxCell id="ASrjUZwRnqdHb8apJMvi-28" value="&lt;u&gt;login&lt;/u&gt;" style="text;html=1;align=center;verticalAlign=middle;resizable=1;points=[];autosize=1;strokeColor=none;fillColor=none;movable=1;rotatable=1;deletable=1;editable=1;locked=0;connectable=1;" parent="1" vertex="1">
          <mxGeometry x="-770" y="122" width="50" height="30" as="geometry" />
        </mxCell>
        <mxCell id="ASrjUZwRnqdHb8apJMvi-30" value="senha" style="text;html=1;align=center;verticalAlign=middle;resizable=1;points=[];autosize=1;strokeColor=none;fillColor=none;movable=1;rotatable=1;deletable=1;editable=1;locked=0;connectable=1;" parent="1" vertex="1">
          <mxGeometry x="-735" y="122" width="60" height="30" as="geometry" />
        </mxCell>
        <mxCell id="ASrjUZwRnqdHb8apJMvi-35" style="edgeStyle=orthogonalEdgeStyle;rounded=0;orthogonalLoop=1;jettySize=auto;html=1;entryX=0.468;entryY=1.087;entryDx=0;entryDy=0;entryPerimeter=0;" parent="1" source="ASrjUZwRnqdHb8apJMvi-24" target="ASrjUZwRnqdHb8apJMvi-18" edge="1">
          <mxGeometry relative="1" as="geometry">
            <Array as="points">
              <mxPoint x="-597" y="330" />
              <mxPoint x="-540" y="330" />
              <mxPoint x="-540" y="260" />
              <mxPoint x="-747" y="260" />
            </Array>
          </mxGeometry>
        </mxCell>
        <mxCell id="ASrjUZwRnqdHb8apJMvi-36" style="edgeStyle=orthogonalEdgeStyle;rounded=0;orthogonalLoop=1;jettySize=auto;html=1;" parent="1" source="ASrjUZwRnqdHb8apJMvi-14" edge="1">
          <mxGeometry relative="1" as="geometry">
            <mxPoint x="-730" y="224" as="targetPoint" />
            <Array as="points">
              <mxPoint x="-537" y="450" />
              <mxPoint x="-350.00000000000006" y="450" />
              <mxPoint x="-350.00000000000006" y="240" />
              <mxPoint x="-730" y="240" />
            </Array>
          </mxGeometry>
        </mxCell>
        <mxCell id="ASrjUZwRnqdHb8apJMvi-38" style="edgeStyle=orthogonalEdgeStyle;rounded=0;orthogonalLoop=1;jettySize=auto;html=1;entryX=0.644;entryY=1.087;entryDx=0;entryDy=0;entryPerimeter=0;" parent="1" source="ASrjUZwRnqdHb8apJMvi-25" target="ASrjUZwRnqdHb8apJMvi-18" edge="1">
          <mxGeometry relative="1" as="geometry">
            <Array as="points">
              <mxPoint x="-437.00000000000006" y="420" />
              <mxPoint x="-370.00000000000006" y="420" />
              <mxPoint x="-370.00000000000006" y="250" />
              <mxPoint x="-738" y="250" />
            </Array>
          </mxGeometry>
        </mxCell>
        <mxCell id="ASrjUZwRnqdHb8apJMvi-39" style="edgeStyle=orthogonalEdgeStyle;rounded=0;orthogonalLoop=1;jettySize=auto;html=1;entryX=0.46;entryY=0.987;entryDx=0;entryDy=0;entryPerimeter=0;" parent="1" source="ASrjUZwRnqdHb8apJMvi-7" target="ASrjUZwRnqdHb8apJMvi-21" edge="1">
          <mxGeometry relative="1" as="geometry">
            <Array as="points">
              <mxPoint x="-537" y="520" />
              <mxPoint x="-790" y="520" />
              <mxPoint x="-790" y="330" />
              <mxPoint x="-756" y="330" />
            </Array>
          </mxGeometry>
        </mxCell>
        <mxCell id="ASrjUZwRnqdHb8apJMvi-40" style="edgeStyle=orthogonalEdgeStyle;rounded=0;orthogonalLoop=1;jettySize=auto;html=1;entryX=0.487;entryY=0.96;entryDx=0;entryDy=0;entryPerimeter=0;" parent="1" source="ASrjUZwRnqdHb8apJMvi-6" target="ASrjUZwRnqdHb8apJMvi-10" edge="1">
          <mxGeometry relative="1" as="geometry">
            <Array as="points">
              <mxPoint x="-607" y="510" />
              <mxPoint x="-780" y="510" />
              <mxPoint x="-780" y="420" />
              <mxPoint x="-755" y="420" />
            </Array>
          </mxGeometry>
        </mxCell>
      </root>
    </mxGraphModel>
  </diagram>
</mxfile>
